<?xml version="1.0" standalone="no"?>
<!DOCTYPE svg PUBLIC "-//W3C//DTD SVG 20010904//EN"
 "http://www.w3.org/TR/2001/REC-SVG-20010904/DTD/svg10.dtd">
<svg version="1.0" xmlns="http://www.w3.org/2000/svg"
 width="436.000000pt" height="436.000000pt" viewBox="0 0 436.000000 436.000000"
 preserveAspectRatio="xMidYMid meet">
<metadata>
Created by potrace 1.14, written by Peter Selinger 2001-2017
</metadata>
<g transform="translate(0.000000,436.000000) scale(0.100000,-0.100000)"
fill="#000000" stroke="none">
<path d="M1562 4240 c-72 -44 -93 -134 -47 -203 14 -20 30 -37 35 -37 6 0 10
-54 10 -133 l0 -132 -31 -14 c-48 -21 -97 -79 -107 -125 -6 -33 -13 -42 -37
-50 -67 -20 -83 -29 -119 -63 -54 -52 -69 -88 -74 -173 -4 -62 -1 -83 17 -120
38 -81 114 -140 179 -140 27 0 30 -4 35 -41 6 -49 49 -107 98 -131 28 -15 62
-18 207 -18 l172 0 0 -94 0 -95 -247 -3 c-247 -3 -248 -3 -298 -30 -49 -26
-102 -91 -119 -145 -4 -13 -11 -23 -15 -23 -15 0 -81 -71 -100 -109 -18 -34
-20 -56 -18 -163 2 -114 4 -126 30 -170 15 -26 42 -59 60 -72 l33 -26 -12 -72
c-15 -82 -17 -261 -5 -325 8 -41 7 -43 -41 -90 -27 -26 -72 -76 -100 -110 -29
-35 -56 -63 -61 -63 -5 0 -38 21 -74 46 -63 45 -64 46 -56 82 27 128 -29 262
-131 317 l-36 20 0 271 c0 229 -2 273 -15 284 -11 9 -15 34 -15 100 l0 88 30
12 c47 20 107 92 124 151 23 76 23 560 1 583 -28 28 -55 29 -81 5 -23 -22 -24
-24 -26 -248 l-3 -226 -106 -3 c-104 -3 -107 -2 -113 20 -3 13 -6 119 -6 235
l0 213 -25 16 c-21 14 -31 15 -51 6 -42 -20 -46 -49 -42 -327 5 -289 7 -301
73 -374 20 -22 52 -46 71 -53 l34 -12 0 -83 c0 -74 -2 -84 -25 -107 l-25 -25
0 -260 0 -261 -39 -19 c-189 -97 -197 -367 -14 -483 l52 -33 1 -103 c0 -114
12 -151 55 -170 35 -16 60 -15 95 3 44 23 50 43 50 163 l0 110 36 21 36 21 66
-49 c111 -81 205 -120 316 -130 l71 -6 2 -70 c4 -108 11 -133 50 -176 60 -66
102 -82 226 -87 l107 -4 0 -198 0 -197 -58 -6 c-109 -9 -192 -86 -192 -177 l0
-40 345 0 346 0 25 25 c18 19 23 31 19 48 -12 37 -29 48 -88 54 l-57 6 0 248
0 249 48 -8 c60 -9 287 -9 330 0 l32 8 0 -249 c0 -278 5 -261 -75 -261 -51 0
-75 -19 -75 -59 0 -61 1 -61 388 -61 l352 0 0 37 c0 88 -88 171 -192 180 l-58
6 0 198 0 199 83 0 c143 0 220 37 270 129 23 41 27 61 27 130 l0 81 43 0 c98
0 242 57 343 136 l57 44 31 -18 31 -18 5 -118 5 -118 33 -29 c46 -42 93 -40
138 5 l34 34 0 110 0 110 43 25 c90 53 137 136 137 242 0 108 -46 188 -136
241 l-44 26 0 258 c0 242 -1 259 -20 283 -17 22 -20 40 -20 139 l0 115 50 23
c65 30 132 98 167 169 25 51 28 66 28 161 0 98 -2 109 -33 172 -37 77 -101
147 -163 178 -55 29 -169 31 -220 5 -94 -49 -169 -144 -195 -248 -23 -87 -15
-196 19 -270 32 -70 110 -149 172 -172 l45 -18 0 -114 c0 -100 -3 -118 -20
-140 -19 -24 -20 -41 -20 -289 0 -241 -1 -263 -17 -268 -34 -11 -121 -105
-130 -140 -23 -94 -25 -121 -14 -169 13 -58 14 -57 -82 -124 l-37 -26 -103
109 c-73 77 -101 114 -99 128 2 12 6 82 9 156 3 100 1 152 -10 200 l-15 65 47
50 c65 69 84 128 79 248 -4 110 -32 175 -94 222 -25 18 -48 47 -59 74 -10 24
-36 61 -57 82 -64 62 -100 69 -355 69 l-223 0 0 95 0 95 167 0 c146 0 172 2
207 20 48 23 82 69 94 125 7 35 12 40 44 47 150 31 233 221 159 367 -28 54
-93 109 -145 122 -39 10 -47 16 -57 48 -18 59 -56 106 -104 130 l-45 22 0 120
c0 120 0 121 29 150 60 60 64 142 10 204 -73 82 -209 47 -238 -63 -14 -50 6
-110 50 -146 l29 -25 0 -120 0 -121 -475 0 -475 0 0 125 c0 112 2 125 19 135
57 30 79 136 41 198 -36 59 -126 79 -188 42z"/>
<path d="M580 3230 c-18 -18 -20 -33 -20 -178 0 -110 4 -162 12 -170 16 -16
73 -15 86 1 7 8 12 75 13 172 1 153 0 160 -21 177 -29 23 -45 23 -70 -2z"/>
<path d="M370 200 c-36 -36 -16 -90 35 -90 50 0 73 60 37 93 -25 22 -48 21
-72 -3z"/>
<path d="M587 202 c-22 -24 -21 -55 1 -75 37 -33 92 -13 92 33 0 54 -58 80
-93 42z"/>
<path d="M802 204 c-27 -18 -29 -55 -4 -77 37 -33 92 -13 92 33 0 53 -44 75
-88 44z"/>
<path d="M1000 200 c-25 -25 -26 -52 -2 -73 37 -34 102 -8 102 40 0 20 -38 53
-60 53 -11 0 -29 -9 -40 -20z"/>
<path d="M1182 204 c-41 -29 -19 -94 33 -94 32 0 55 25 55 60 0 46 -46 64 -88
34z"/>
<path d="M3077 202 c-36 -40 -13 -92 41 -92 24 0 52 30 52 57 0 46 -62 69 -93
35z"/>
<path d="M3268 209 c-21 -12 -24 -69 -6 -87 18 -18 63 -14 81 6 45 50 -17 115
-75 81z"/>
<path d="M3430 200 c-11 -11 -20 -28 -20 -38 0 -25 31 -52 58 -52 25 0 62 33
62 55 0 22 -37 55 -60 55 -11 0 -29 -9 -40 -20z"/>
<path d="M3617 202 c-20 -22 -22 -63 -5 -80 18 -18 63 -14 81 6 23 26 21 58
-5 76 -29 21 -51 20 -71 -2z"/>
<path d="M3827 202 c-36 -40 -13 -92 41 -92 24 0 52 30 52 57 0 46 -62 69 -93
35z"/>
</g>
</svg>
